<svg width="250" height="269" viewBox="0 0 250 269" fill="none" xmlns="http://www.w3.org/2000/svg">
<path fill-rule="evenodd" clip-rule="evenodd" d="M9.03556 83.0347L21.0306 83.3781L19.9773 120.165L22.8633 127.625L16.9734 170.013L17.0205 170.052L33.5709 168.992L36.3028 168.181L39.7154 179.686L35.6874 180.881L12.9981 182.335L4.17249 174.947L10.5494 129.054L7.91305 122.238L9.03556 83.0347Z" fill="white"/>
<path fill-rule="evenodd" clip-rule="evenodd" d="M23.2459 180.42L23.0637 180.218L23.2526 180.048L23.2887 178.051L25.4226 178.09L31.9738 172.18L35.3295 175.9L35.2045 182.818L37.2444 182.506L46.7336 183.467L45.5247 195.406L37.5535 194.599L29.5347 195.827L23.0841 189.376L23.2459 180.42Z" fill="white"/>
<path fill-rule="evenodd" clip-rule="evenodd" d="M43.5075 183.468L44.7509 195.404L40.7723 195.818L45.5738 199.453L45.5738 213.78L48.2186 218.707L52.2951 221.265L77.3689 221.745L87.3998 219.808L92.5124 217.544L97.3702 228.517L91.0123 231.332L78.4031 233.767L48.7375 233.199L39.1487 227.183L33.5738 216.797V205.42L27.3523 200.71L28.4309 188.845L36.1837 184.231L43.5075 183.468Z" fill="white"/>
<path fill-rule="evenodd" clip-rule="evenodd" d="M141.317 126.712L139.726 118.934L151.483 116.53L153.601 126.887L150.428 140.425L147.985 149.344L138.6 160.272L129.253 163.747L120.396 161.094L115.931 154.067L116.057 147.476L117.357 143.452L128.776 147.142L128.021 149.479L127.998 150.682L128.125 150.882L128.842 151.097L131.514 150.104L137.124 143.572L138.795 137.47L141.317 126.712Z" fill="white"/>
<path fill-rule="evenodd" clip-rule="evenodd" d="M128.58 120.295L129.625 117.285L118.289 113.349L116.619 118.16L116.511 123.782L118.175 129.977L121.147 134.559L121.283 136.755L133.26 136.014L132.93 130.672L129.273 125.035L128.542 122.312L128.58 120.295Z" fill="white"/>
<path fill-rule="evenodd" clip-rule="evenodd" d="M34.1964 113.009L48.4577 113.282L78.5663 122.069L75.2044 133.588L46.6301 125.249L35.8959 125.043L27.4007 127.669L23.8576 116.204L34.1964 113.009Z" fill="white"/>
<path d="M34.1804 129.964L32.59 133.755L35.6904 141.313L43.8113 143.614L53.4211 141.95L60.8315 135.477L51.9982 131.137L42.0511 128.671L34.1804 129.964Z" fill="white"/>
<path fill-rule="evenodd" clip-rule="evenodd" d="M213.096 36.8251L226.412 43.6821L232.506 55.5397L221.833 61.0249L217.497 52.5892L210.822 49.1516L201.694 50.1658L194.381 55.3097L187.477 45.4949L197.308 38.5792L213.096 36.8251Z" fill="white"/>
<path fill-rule="evenodd" clip-rule="evenodd" d="M233.764 60.5216L220.278 54.1178L225.426 43.2779L242.666 51.4649L249.343 64.9248L247.654 97.1L240.875 122.428L236.853 152.662L207.291 136.938L200.043 128.871L208.969 120.851L214.8 127.34L227.236 133.955L229.083 120.076L235.736 95.2137L237.195 67.4382L233.764 60.5216Z" fill="white"/>
<path fill-rule="evenodd" clip-rule="evenodd" d="M33.6104 38.8574L93.5927 56.2249L139.792 57.1093L139.562 69.1071L91.778 68.1923L33.3945 51.2878L16.3594 55.5852L13.0193 69.207L18.7951 76.7969L35.7212 77.1209L55.7889 69.442L61.6431 79.7614L58.5979 82.157L59.2436 89.8308L73.4655 95.7618L86.8123 95.0297L100.604 99.9221L114.824 109.649L134.812 104.695L153.955 113.19L164.549 111.656L166.268 123.532L152.25 125.562L133.705 117.332L112.49 122.591L95.1187 110.709L85.0675 107.143L71.381 107.894L47.897 98.1006L46.8544 85.7093L37.8275 89.1635L12.7613 88.6836L0 71.9142L6.42393 45.7156L33.6104 38.8574Z" fill="white"/>
<path fill-rule="evenodd" clip-rule="evenodd" d="M73.7684 243.95L72.5209 228.965L84.4795 227.97L86.4847 252.054L40.9017 268.845L36.7539 257.584L73.7684 243.95Z" fill="white"/>
<path fill-rule="evenodd" clip-rule="evenodd" d="M50.9708 0L121.504 58.5711L113.838 67.8031L47.5217 12.7338L40.0779 13.9654L36.4851 23.3764L32.2461 32.3341L31.9836 46.0437L19.9858 45.814L20.2976 29.5292L25.4398 18.6629L31.3238 3.25067L50.9708 0Z" fill="white"/>
<path fill-rule="evenodd" clip-rule="evenodd" d="M128.162 9.19659L158.191 20.03L185.106 38.9047L205.268 62.0646L214.404 112.774L200.258 160.162L185.428 176.977L175.274 193.766L177.056 241.391L210.945 257.543L205.782 268.376L165.336 249.098L163.148 190.628L175.717 169.846L189.514 154.202L202.086 112.085L194.044 67.4484L177.017 47.8887L152.612 30.7744L127.014 21.5394L105.942 24.9554L88.8669 24.6285L76.5469 30.7203L71.228 19.9635L86.171 12.5747L105.09 12.9369L128.162 9.19659Z" fill="white"/>
</svg>
