<svg width="466" height="156" viewBox="0 0 466 156" fill="none" xmlns="http://www.w3.org/2000/svg">
<path fill-rule="evenodd" clip-rule="evenodd" d="M274.964 68.8177V123.356H268.471V68.8177H274.964Z" fill="black"/>
<path fill-rule="evenodd" clip-rule="evenodd" d="M244.611 126.206V91.542H251.103V129.27L230.605 146.151L226.478 141.139L244.611 126.206Z" fill="black"/>
<path fill-rule="evenodd" clip-rule="evenodd" d="M6.49265 99.5485L18.2229 85.6855L13.2665 81.4916L0 97.1702V145.106H60.2193V122.157L61.5153 123.194H77.752L82.2943 119.56L86.8367 123.194H99.0155L103.558 119.56L108.1 123.194H128.557L133.099 119.56L137.642 123.194H155.109L162.741 115.145L171.067 123.194H184.624L189.91 119.399L195.196 123.194H225.782V91.5421H219.289V116.701H197.285L193.156 113.737V91.7044H159.395V109.239L152.318 116.701H139.919L136.346 113.842V92.5159H129.853V113.842L126.28 116.701H110.378L106.804 113.842V92.5159H100.311V113.842L96.738 116.701H89.1142L85.5407 113.842V94.9507H79.048V113.842L75.4745 116.701H63.7928L60.2193 113.842V94.9507H53.7267V138.614H6.49265V99.5485ZM165.887 109.156L173.692 116.701H182.535L186.664 113.737V98.197H165.887V109.156Z" fill="black"/>
<path fill-rule="evenodd" clip-rule="evenodd" d="M244.61 50.1514H292.169V56.644H251.103V77.2581H244.61V50.1514Z" fill="black"/>
<path fill-rule="evenodd" clip-rule="evenodd" d="M199.649 70.4409H225.62V76.9335H199.649V70.4409Z" fill="black"/>
<path fill-rule="evenodd" clip-rule="evenodd" d="M105.506 136.991H131.476V143.483H105.506V136.991Z" fill="black"/>
<path fill-rule="evenodd" clip-rule="evenodd" d="M14.3234 38.1514H10.6061L0 66.1514H1.81463L5.02859 57.6665H19.9008L23.1148 66.1514H24.9294L14.3234 38.1514ZM13.1515 39.8483H11.7779L5.67683 55.9695H19.258L13.1515 39.8483Z" fill="black"/>
<path fill-rule="evenodd" clip-rule="evenodd" d="M31.1314 54.2726H39.1582L46.9536 66.1514H48.9834L41.1879 54.2726H45.4828L49.3738 50.3816V42.0423L45.4828 38.1514H29.4344V66.1514H31.1314V54.2726ZM44.7799 52.5756L47.6768 49.6787V42.7452L44.7799 39.8483H31.1314V52.5756H44.7799Z" fill="black"/>
<path fill-rule="evenodd" clip-rule="evenodd" d="M79.495 38.1514H97.3132V39.8483H81.192V52.5756H96.889V54.2726H81.192V64.4544H97.3132V66.1514H79.495V54.2726H75.0405V52.5756H79.495V38.1514Z" fill="black"/>
<path fill-rule="evenodd" clip-rule="evenodd" d="M63.798 39.8483H54.0405V38.1514H75.6768V39.8483H65.495V66.1514H63.798V39.8483Z" fill="black"/>
<path fill-rule="evenodd" clip-rule="evenodd" d="M102.828 38.1514H106.756L117.362 60.212H117.992L128.598 38.1514H132.525V66.1514H130.828V39.8483H129.665L119.059 61.9089H116.295L105.689 39.8483H104.525V66.1514H102.828V38.1514Z" fill="black"/>
<path fill-rule="evenodd" clip-rule="evenodd" d="M141.01 44.9392V66.1514H139.313V44.9392H141.01Z" fill="black"/>
<path fill-rule="evenodd" clip-rule="evenodd" d="M141.01 38.1514V41.1211H139.313V38.1514H141.01Z" fill="black"/>
<path fill-rule="evenodd" clip-rule="evenodd" d="M150.841 38.1514H164.238L167.872 41.331L166.754 42.6081L163.6 39.8483H151.543L148.647 42.7452V47.9817L151.543 50.8786H164.271L168.162 54.7696V62.2604L164.271 66.1514H150.873L147.239 62.9717L148.357 61.6946L151.511 64.4544H163.568L166.465 61.5575V55.4725L163.568 52.5756H150.841L146.95 48.6846V42.0423L150.841 38.1514Z" fill="black"/>
<path fill-rule="evenodd" clip-rule="evenodd" d="M326.829 47.4178L331.512 47.5518L330.889 69.3308L332.554 73.6353L329.041 99.1868L329.927 99.9286L340.218 99.269L341.945 98.7569L343.277 103.248L341.045 103.911L328.356 104.724L324.046 101.116L327.748 74.1964L326.179 70.1405L326.829 47.4178Z" fill="black"/>
<path fill-rule="evenodd" clip-rule="evenodd" d="M335.159 103.973L334.744 103.513L335.175 103.123L335.177 103.047L335.258 103.049L338.222 100.374L339.879 102.211L339.786 107.063L342.379 106.814L348.049 107.896L347.171 112.498L342.159 111.542L337.735 111.967L335.056 109.347L335.159 103.973Z" fill="black"/>
<path fill-rule="evenodd" clip-rule="evenodd" d="M345.75 107.576L345.966 112.256L343.433 112.373L342.739 112.824L342.668 113.48L346.054 116.012L345.896 124.268L347.72 127.665L350.645 129.5L365.777 129.79L371.903 128.607L375.019 127.227L376.915 131.511L373.314 133.106L366.181 134.483L349.256 134.159L344.179 130.974L341.189 125.403L341.324 118.325L337.723 115.631L338.321 110.108L341.947 107.751L345.75 107.576Z" fill="black"/>
<path fill-rule="evenodd" clip-rule="evenodd" d="M404.325 72.9797L403.342 68.1731L407.932 67.2343L409.121 73.048L407.326 80.7049L405.971 85.653L400.843 91.6236L396.021 93.4167L391.628 92.1007L389.437 88.6518L389.501 85.318L390.209 83.1262L394.667 84.5667L394.172 86.0998L394.148 87.3305L394.646 88.1141L395.86 88.4779L398.077 87.6538L401.731 83.3996L402.785 79.5512L404.325 72.9797Z" fill="black"/>
<path fill-rule="evenodd" clip-rule="evenodd" d="M394.499 68.9966L395.172 67.0577L390.746 65.5214L389.829 68.1631L389.773 71.1034L390.656 74.3924L392.464 77.1788L392.563 78.7718L397.239 78.4823L397.064 75.6611L394.989 72.4631L394.47 70.5295L394.499 68.9966Z" fill="black"/>
<path fill-rule="evenodd" clip-rule="evenodd" d="M340.556 66.1124L348.567 66.2657L366.049 71.368L364.737 75.8653L347.853 70.9379L341.226 70.811L335.402 72.6294L334.006 68.1572L340.556 66.1124Z" fill="black"/>
<path d="M340.331 74.8146L339.456 76.8988L341.161 81.0546L345.626 82.32L350.91 81.4051L354.985 77.8457L350.128 75.4595L344.658 74.1032L340.331 74.8146Z" fill="black"/>
<path fill-rule="evenodd" clip-rule="evenodd" d="M444.94 21.5258L452.089 25.2077L455.487 31.8178L451.32 33.9593L448.609 28.6852L444.052 26.3383L438.056 27.0044L433.528 30.1898L430.832 26.3579L436.344 22.4808L444.94 21.5258Z" fill="black"/>
<path fill-rule="evenodd" clip-rule="evenodd" d="M458.134 33.316L449.87 29.3917L451.879 25.1597L461.61 29.7801L465.203 37.0239L464.236 55.437L460.279 70.2245L458.135 86.3339L442.495 78.0143L438.389 73.444L441.874 70.3129L445.426 74.267L454.381 79.0302L455.674 69.3062L459.583 54.7006L460.46 38.0052L458.134 33.316Z" fill="black"/>
<path fill-rule="evenodd" clip-rule="evenodd" d="M340.029 22.7262L375 32.8518L402.21 33.3728L402.12 38.0569L374.292 37.5241L339.945 27.5793L328.978 30.3458L326.721 39.5506L330.785 44.8914L341.492 45.0964L353.457 40.5179L355.743 44.5468L353.464 46.3398L353.954 52.1714L363.187 56.0217L371.036 55.5912L378.748 58.3268L387.383 64.2334L399.208 61.3023L410.36 66.2512L416.899 65.3046L417.57 69.9412L409.695 71.0814L398.776 66.2361L386.472 69.2861L376.606 62.5382L370.355 60.3206L362.373 60.7584L349.524 55.4L348.843 47.2999L342.314 49.798L328.429 49.5322L321.638 40.6076L325.099 26.4926L340.029 22.7262Z" fill="black"/>
<path fill-rule="evenodd" clip-rule="evenodd" d="M364.809 142.411L364.004 132.748L368.673 132.359L369.774 145.575L343.915 155.1L342.296 150.704L364.809 142.411Z" fill="black"/>
<path fill-rule="evenodd" clip-rule="evenodd" d="M349.88 0L390.775 33.9588L387.782 37.5631L348.534 4.97149L342.983 5.88981L340.656 11.9868L338.085 17.419L337.927 25.699L333.242 25.6094L333.42 16.3239L336.343 10.1466L339.566 1.7066L349.88 0Z" fill="black"/>
<path fill-rule="evenodd" clip-rule="evenodd" d="M395.31 5.34766L412.463 11.536L427.98 22.4176L439.481 35.6292L444.725 64.7333L436.595 91.9702L428.011 101.703L421.828 111.925L422.912 140.874L443.398 150.638L441.382 154.867L418.336 143.883L417.094 110.7L424.219 98.919L432.4 89.6435L439.916 64.4641L435.1 37.7311L424.822 25.9251L410.285 15.7307L394.862 10.1665L382.326 12.1986L372.147 12.0037L364.676 15.6979L362.599 11.4982L371.094 7.29775L381.993 7.50641L395.31 5.34766Z" fill="black"/>
</svg>
