<svg width="24" height="24" viewBox="0 0 24 24" fill="none" xmlns="http://www.w3.org/2000/svg">
<path fill-rule="evenodd" clip-rule="evenodd" d="M12.0073 10.4932C9.61731 10.4932 7.67982 8.59189 7.67982 6.24658C7.67982 3.90126 9.61731 2 12.0073 2C14.3973 2 16.3348 3.90126 16.3348 6.24658C16.3348 8.59189 14.3973 10.4932 12.0073 10.4932ZM7.07261 12.44C8.02168 12.4586 8.68853 12.5417 9.07317 12.6894C10.5366 13.2512 13.1135 13.2512 14.6829 12.6894C15.1484 12.5228 15.8895 12.4303 16.9062 12.4119C19.6684 12.362 21.9486 14.53 21.9992 17.2543C21.9997 17.2844 22 17.3146 22 17.3447V19.8082C22 21.0187 21.0051 22 19.7778 22H4.22222C2.99492 22 2 21.0187 2 19.8082V17.3447C2 14.6354 4.22685 12.439 6.97381 12.439C7.00674 12.439 7.03968 12.4393 7.07261 12.44Z" fill="#F2F0FF"/>
</svg>
