<svg width="24" height="24" viewBox="0 0 24 24" fill="none" xmlns="http://www.w3.org/2000/svg">
<path d="M17.0627 15.0635C16.5567 15.0635 16.1461 14.6538 16.1461 14.1478C16.1461 13.6418 16.5558 13.2311 17.0618 13.2311C17.5678 13.2311 17.9785 13.6408 17.9785 14.1468C17.9785 14.6528 17.5688 15.0626 17.0627 15.0635ZM6.93725 15.0635C6.43125 15.0635 6.02058 14.6538 6.02058 14.1478C6.02058 13.6418 6.43033 13.2311 6.93633 13.2311C7.44233 13.2311 7.853 13.6408 7.853 14.1468C7.853 14.6528 7.44325 15.0626 6.93725 15.0635ZM17.3909 9.54518L19.2215 6.37443C19.3269 6.19201 19.2646 5.95918 19.0822 5.85376C18.8997 5.74835 18.6669 5.81068 18.5615 5.9931L16.708 9.20418C15.2908 8.55701 13.6986 8.19676 12 8.19676C10.3014 8.19676 8.70917 8.55701 7.29108 9.20326L5.43758 5.9931C5.33217 5.81068 5.09933 5.74835 4.91692 5.85285C4.73542 5.95826 4.67217 6.1911 4.77758 6.37351L6.60817 9.54518C3.464 11.2548 1.31442 14.4374 0.999083 18.1985H22.9991C22.6847 14.4374 20.5351 11.2548 17.3909 9.54518Z" fill="#F2F0FF"/>
</svg>
