<svg width="24" height="24" viewBox="0 0 24 24" fill="none" xmlns="http://www.w3.org/2000/svg">
<path d="M5.27272 2H7.72728C9.53475 2 11 3.46525 11 5.27272V7.72728C11 9.53475 9.53475 11 7.72728 11H5.27272C3.46525 11 2 9.53479 2 7.72728V5.27272C2 3.46525 3.46525 2 5.27272 2Z" fill="#F2F0FF"/>
<path d="M5.27272 13H7.72728C9.53475 13 11 14.4653 11 16.2727V18.7273C11 20.5347 9.53475 22 7.72728 22H5.27272C3.46525 22 2 20.5348 2 18.7273V16.2728C2 14.4653 3.46525 13 5.27272 13Z" fill="#F2F0FF"/>
<path d="M16.2727 13H18.7273C20.5347 13 22 14.4652 22 16.2727V18.7273C22 20.5348 20.5347 22 18.7273 22H16.2727C14.4653 22 13 20.5348 13 18.7273V16.2727C13 14.4652 14.4652 13 16.2727 13Z" fill="#F2F0FF"/>
<path d="M13.8 7.79999H16.2V10.2C16.2 10.6418 16.5582 11 17 11C17.4418 11 17.8 10.6418 17.8 10.2V7.79999H20.2C20.6418 7.79999 21 7.44183 21 7C21 6.55817 20.6418 6.20001 20.2 6.20001H17.8V3.79999C17.8 3.35816 17.4418 3 17 3C16.5582 3 16.2 3.35816 16.2 3.79999V6.20001H13.8C13.3582 6.20001 13 6.55817 13 7C13 7.44183 13.3582 7.79999 13.8 7.79999Z" fill="#F2F0FF"/>
</svg>
