<svg width="24" height="24" viewBox="0 0 24 24" fill="none" xmlns="http://www.w3.org/2000/svg">
<path d="M12.7421 2.4572L11.7196 4.17462C11.4998 3.79657 10.994 2.9303 10.7301 2.48961C10.4663 2.04891 10.0045 1.98194 9.8066 2.00355C8.96222 2.06835 8.71814 2.74344 8.70165 3.07288C8.68846 3.24138 8.72914 3.41313 8.75112 3.47793L10.4498 6.3781L5.41979 14.949L2.15442 14.9652C1.76962 14.9598 1 15.1629 1 16.0183C1 16.8738 1.70365 17.1201 2.05547 17.1363H15.2819C15.4798 17.1363 15.4743 16.9959 15.4468 16.9256C15.0642 15.3443 14.056 14.949 13.5997 14.949H7.97601C10.1309 11.2603 14.4738 3.8279 14.6057 3.60755C14.7376 3.3872 14.7596 3.14849 14.7541 3.05668C14.7013 2.21417 13.9845 2.00355 13.6327 2.00355C13.1973 1.96466 12.8576 2.28978 12.7421 2.4572Z" fill="#F2F0FF"/>
<path d="M3.30885 18.5945L2.2039 20.4415C1.97903 20.8174 2.14319 21.2894 2.25337 21.4784C2.35232 21.6513 2.67886 21.9969 3.1934 21.9969C3.70795 21.9969 4.03448 21.6513 4.13343 21.4784C4.67766 20.5711 5.809 18.6884 5.98051 18.4162C6.15202 18.144 6.18391 17.8924 6.17841 17.8006C6.13883 17.4765 5.7991 17.4171 5.63418 17.4279C4.4072 17.4927 3.57271 18.2326 3.30885 18.5945Z" fill="#F2F0FF"/>
<path d="M13.7316 7.67427L18.036 14.9652H21.928C22.2854 14.976 23 15.2115 23 16.0669C23 16.9224 22.2854 17.1363 21.928 17.1363H19.3058C19.9435 18.2164 21.2321 20.4026 21.2849 20.5063C21.3376 20.61 21.3508 20.8087 21.3508 20.8952C21.3112 21.7506 20.5867 21.9861 20.2294 21.9969C19.7808 22.0358 19.4488 21.6999 19.3388 21.527C17.6952 18.7997 14.167 12.9399 13.2039 11.3197C12.2408 9.69953 12.8026 8.17113 13.2039 7.60946C13.4018 7.36319 13.6382 7.55005 13.7316 7.67427Z" fill="#F2F0FF"/>
</svg>
