<svg width="60" height="61" viewBox="0 0 60 61" fill="none" xmlns="http://www.w3.org/2000/svg">
<path d="M54.4002 40.3L38.4002 11.5C36.2502 7.625 33.2752 5.5 30.0002 5.5C26.7252 5.5 23.7502 7.625 21.6002 11.5L5.60019 40.3C3.57519 43.975 3.35019 47.5 4.97519 50.275C6.60019 53.05 9.80019 54.575 14.0002 54.575H46.0002C50.2002 54.575 53.4002 53.05 55.0252 50.275C56.6502 47.5 56.4252 43.95 54.4002 40.3ZM28.1252 23C28.1252 21.975 28.9752 21.125 30.0002 21.125C31.0252 21.125 31.8752 21.975 31.8752 23V35.5C31.8752 36.525 31.0252 37.375 30.0002 37.375C28.9752 37.375 28.1252 36.525 28.1252 35.5V23ZM31.7752 44.775C31.6502 44.875 31.5252 44.975 31.4002 45.075C31.2502 45.175 31.1002 45.25 30.9502 45.3C30.8002 45.375 30.6502 45.425 30.4752 45.45C30.3252 45.475 30.1502 45.5 30.0002 45.5C29.8502 45.5 29.6752 45.475 29.5002 45.45C29.3502 45.425 29.2002 45.375 29.0502 45.3C28.9002 45.25 28.7502 45.175 28.6002 45.075C28.4752 44.975 28.3502 44.875 28.2252 44.775C27.7752 44.3 27.5002 43.65 27.5002 43C27.5002 42.35 27.7752 41.7 28.2252 41.225C28.3502 41.125 28.4752 41.025 28.6002 40.925C28.7502 40.825 28.9002 40.75 29.0502 40.7C29.2002 40.625 29.3502 40.575 29.5002 40.55C29.8252 40.475 30.1752 40.475 30.4752 40.55C30.6502 40.575 30.8002 40.625 30.9502 40.7C31.1002 40.75 31.2502 40.825 31.4002 40.925C31.5252 41.025 31.6502 41.125 31.7752 41.225C32.2252 41.7 32.5002 42.35 32.5002 43C32.5002 43.65 32.2252 44.3 31.7752 44.775Z" fill="#FF4445"/>
</svg>
