<svg width="24" height="24" viewBox="0 0 24 24" fill="none" xmlns="http://www.w3.org/2000/svg">
<path fill-rule="evenodd" clip-rule="evenodd" d="M12.3733 7.02981C13.1473 6.25681 13.9343 5.46981 14.6523 4.7518C15.2613 4.1428 16.0883 3.7998 16.9503 3.7998C17.8123 3.7998 18.6383 4.1428 19.2483 4.7518C19.8573 5.3618 20.2003 6.18781 20.2003 7.04981C20.2003 7.91181 19.8573 8.7388 19.2483 9.34781C18.0553 10.5408 16.6693 11.9268 15.4773 13.1198C14.8673 13.7288 14.0403 14.0708 13.1793 14.0708C12.3173 14.0708 11.4903 13.7288 10.8803 13.1198C10.6073 12.8458 10.3883 12.5288 10.2293 12.1848C10.0553 11.8098 9.60934 11.6458 9.23334 11.8188C8.85734 11.9928 8.69334 12.4388 8.86734 12.8148C9.09934 13.3178 9.42034 13.7808 9.82034 14.1798C10.7113 15.0708 11.9193 15.5708 13.1793 15.5708C14.4383 15.5708 15.6463 15.0708 16.5373 14.1798C17.7303 12.9868 19.1163 11.6018 20.3093 10.4088C21.1993 9.51781 21.7003 8.30981 21.7003 7.04981C21.7003 5.78981 21.1993 4.5818 20.3093 3.6908C19.4183 2.8008 18.2103 2.2998 16.9503 2.2998C15.6903 2.2998 14.4823 2.8008 13.5913 3.6908C12.8733 4.4088 12.0863 5.1958 11.3133 5.96981C11.0203 6.26181 11.0203 6.73781 11.3133 7.02981C11.6063 7.32281 12.0813 7.32281 12.3733 7.02981Z" fill="#F2F0FF"/>
<path fill-rule="evenodd" clip-rule="evenodd" d="M11.6268 16.9697C10.8528 17.7427 10.0658 18.5297 9.34781 19.2477C8.73881 19.8567 7.91181 20.1997 7.04981 20.1997C6.18781 20.1997 5.36181 19.8567 4.75181 19.2477C4.14281 18.6377 3.79981 17.8117 3.79981 16.9497C3.79981 16.0877 4.14281 15.2607 4.75181 14.6517C5.94481 13.4587 7.33081 12.0727 8.52281 10.8797C9.13281 10.2707 9.95981 9.92871 10.8208 9.92871C11.6828 9.92871 12.5098 10.2707 13.1198 10.8797C13.3928 11.1537 13.6118 11.4707 13.7708 11.8147C13.9448 12.1897 14.3908 12.3537 14.7668 12.1807C15.1428 12.0067 15.3068 11.5607 15.1328 11.1847C14.9008 10.6817 14.5798 10.2187 14.1798 9.81971C13.2888 8.92871 12.0808 8.42871 10.8208 8.42871C9.56181 8.42871 8.35381 8.92871 7.46281 9.81971C6.26981 11.0127 4.88381 12.3977 3.69081 13.5907C2.80081 14.4817 2.29981 15.6897 2.29981 16.9497C2.29981 18.2097 2.80081 19.4177 3.69081 20.3087C4.58181 21.1987 5.78981 21.6997 7.04981 21.6997C8.30981 21.6997 9.51781 21.1987 10.4088 20.3087C11.1268 19.5907 11.9138 18.8037 12.6868 18.0297C12.9798 17.7377 12.9798 17.2617 12.6868 16.9697C12.3938 16.6767 11.9188 16.6767 11.6268 16.9697Z" fill="#F2F0FF"/>
</svg>
