<svg width="24" height="24" viewBox="0 0 24 24" fill="none" xmlns="http://www.w3.org/2000/svg">
<g clip-path="url(#clip0_840_85)">
<path d="M19.9167 7.4169C19.705 7.4169 19.4933 7.33691 19.3308 7.17607C19.0033 6.85275 19.0008 6.32526 19.3242 5.99776L20.5742 4.73362C20.8975 4.40612 21.425 4.40362 21.7525 4.72695C22.08 5.05028 22.0825 5.57777 21.7592 5.90526L20.5092 7.16941C20.3467 7.33441 20.1317 7.4169 19.9167 7.4169ZM17.2042 4.69612L17.9708 3.21697C18.1825 2.80865 18.0233 2.30532 17.615 2.09366C17.205 1.882 16.7025 2.04116 16.4917 2.44949L15.725 3.92863C15.5133 4.33695 15.6725 4.84028 16.0808 5.05194C16.2033 5.11528 16.335 5.14527 16.4633 5.14527C16.765 5.14527 17.0558 4.98194 17.2042 4.69612ZM4.66917 7.17607C4.99667 6.85275 4.99917 6.32526 4.67583 5.99776L3.42583 4.73362C3.1025 4.40612 2.575 4.40362 2.2475 4.72695C1.92 5.05028 1.9175 5.57777 2.24083 5.90526L3.49083 7.16941C3.65333 7.33441 3.86833 7.4169 4.08333 7.4169C4.295 7.4169 4.50667 7.33691 4.66917 7.17607ZM7.91917 5.05278C8.3275 4.84111 8.4875 4.33779 8.275 3.92946L7.50833 2.45032C7.2975 2.04283 6.79583 1.88283 6.385 2.09449C5.97667 2.30616 5.81667 2.80948 6.02917 3.21781L6.79583 4.69695C6.94417 4.98278 7.235 5.14694 7.53667 5.14694C7.66583 5.14694 7.79667 5.11611 7.91917 5.05278ZM18.95 16.7259C18.7925 16.9001 18.5683 17.0001 18.3325 17.0001H5.6675C5.43167 17.0001 5.2075 16.9001 5.05 16.7259C4.89167 16.5518 4.815 16.3184 4.83833 16.0834L5.38833 10.5852C5.5925 8.54105 7.29583 7.00024 9.35 7.00024H14.6508C16.705 7.00024 18.4083 8.54189 18.6125 10.5852L19.1625 16.0834C19.1858 16.3176 19.1083 16.5509 18.95 16.7259ZM12 11.1668C12 10.7069 11.6267 10.3335 11.1667 10.3335H9.5175C9.08917 10.3335 8.73083 10.6577 8.68833 11.0835L8.52167 12.7501C8.47583 13.2076 8.81 13.6168 9.26833 13.6626C9.29667 13.6651 9.32417 13.6668 9.3525 13.6668C9.77583 13.6668 10.1375 13.346 10.1808 12.9168L10.2725 12.0002H11.1683C11.6283 12.0002 12.0017 11.6268 12.0017 11.1668H12ZM22 21.1667C22 21.6267 21.6267 22 21.1667 22H2.83333C2.37333 22 2 21.6267 2 21.1667C2 19.7859 3.11917 18.6667 4.5 18.6667H19.5C20.8808 18.6667 22 19.7859 22 21.1667Z" fill="#F2F0FF"/>
</g>
<defs>
<clipPath id="clip0_840_85">
<rect width="24" height="24" fill="white"/>
</clipPath>
</defs>
</svg>
