<svg width="24" height="24" viewBox="0 0 24 24" fill="none" xmlns="http://www.w3.org/2000/svg">
<path d="M17.95 12.6994C17.972 10.9852 18.8703 9.40215 20.3306 8.50474C19.4056 7.1829 17.9106 6.37532 16.2981 6.3249C14.6014 6.14707 12.9569 7.33965 12.0925 7.33965C11.2116 7.33965 9.88055 6.34232 8.44688 6.37165C6.5613 6.43307 4.8453 7.47899 3.92772 9.12807C1.9743 12.5106 3.43088 17.4826 5.30272 20.217C6.23955 21.5562 7.33314 23.0513 8.76588 22.9991C10.1675 22.9413 10.6909 22.1053 12.3821 22.1053C14.0578 22.1053 14.5491 22.9991 16.0103 22.9652C17.5136 22.9404 18.4615 21.6204 19.3653 20.2683C20.0381 19.3141 20.5561 18.2599 20.8989 17.1443C19.1132 16.389 17.9518 14.6391 17.95 12.6994Z" fill="#F2F0FF"/>
<path d="M15.1899 4.52642C16.0094 3.54192 16.4136 2.27692 16.3156 1C15.0634 1.132 13.9056 1.73058 13.0751 2.67658C12.2547 3.61067 11.8386 4.83167 11.9192 6.07283C13.1888 6.08567 14.3942 5.5155 15.1899 4.52642Z" fill="#F2F0FF"/>
</svg>
