<svg width="25" height="24" viewBox="0 0 25 24" fill="none" xmlns="http://www.w3.org/2000/svg">
<g clip-path="url(#clip0_840_4797)">
<path d="M16.69 2H8.31C4.67 2 2.5 4.17 2.5 7.81V16.18C2.5 19.83 4.67 22 8.31 22H16.68C20.32 22 22.49 19.83 22.49 16.19V7.81C22.5 4.17 20.33 2 16.69 2ZM8.68 16.77C8.66 16.77 8.63 16.77 8.61 16.77C7.64 16.68 6.73 16.23 6.05 15.51C4.45 13.83 4.45 11.1 6.05 9.42L8.24 7.12C9.02 6.3 10.07 5.84 11.19 5.84C12.31 5.84 13.36 6.29 14.14 7.12C15.74 8.8 15.74 11.53 14.14 13.21L13.05 14.36C12.76 14.66 12.29 14.67 11.99 14.39C11.69 14.1 11.68 13.63 11.96 13.33L13.05 12.18C14.11 11.07 14.11 9.26 13.05 8.16C12.06 7.12 10.32 7.12 9.32 8.16L7.13 10.46C6.07 11.57 6.07 13.38 7.13 14.48C7.56 14.94 8.14 15.22 8.75 15.28C9.16 15.32 9.46 15.69 9.42 16.1C9.39 16.48 9.06 16.77 8.68 16.77ZM18.95 14.59L16.76 16.89C15.98 17.71 14.93 18.17 13.81 18.17C12.69 18.17 11.64 17.72 10.86 16.89C9.26 15.21 9.26 12.48 10.86 10.8L11.95 9.65C12.24 9.35 12.71 9.34 13.01 9.62C13.31 9.91 13.32 10.38 13.04 10.68L11.95 11.83C10.89 12.94 10.89 14.75 11.95 15.85C12.94 16.89 14.68 16.9 15.68 15.85L17.87 13.55C18.93 12.44 18.93 10.63 17.87 9.53C17.44 9.07 16.86 8.79 16.25 8.73C15.84 8.69 15.54 8.32 15.58 7.91C15.62 7.5 15.98 7.19 16.4 7.24C17.37 7.34 18.28 7.78 18.96 8.5C20.55 10.17 20.55 12.91 18.95 14.59Z" fill="#F2F0FF"/>
</g>
<defs>
<clipPath id="clip0_840_4797">
<rect width="24" height="24" fill="white" transform="translate(0.5)"/>
</clipPath>
</defs>
</svg>
