<svg width="24" height="24" viewBox="0 0 24 24" fill="none" xmlns="http://www.w3.org/2000/svg">
<path fill-rule="evenodd" clip-rule="evenodd" d="M21.2632 3C21.8421 3 23 3.3375 23 4.6875V19.3125C23 19.875 22.614 21 21.0702 21H13.9298C13.6725 20.3125 13.1579 18.7125 13.1579 17.8125C14.3801 17.6875 16.9404 17.2125 17.4035 16.3125C17.6608 15.75 17.7895 14.4375 16.4386 14.8125C15.6023 15.1875 13.7754 15.9375 13.1579 15.9375C13.1579 14.875 13.3509 12.4875 14.1228 11.4375H11.2281C11.4211 10.25 12.2316 6.9 13.9298 3H21.2632ZM16.125 7.66667C16.125 7.13333 16.5833 7 16.8125 7C17.3625 7 17.5 7.44444 17.5 7.66667V9C17.5 9.22222 17.3625 9.66667 16.8125 9.66667C16.2625 9.66667 16.125 9.22222 16.125 9V7.66667Z" fill="#F2F0FF"/>
<path fill-rule="evenodd" clip-rule="evenodd" d="M12 3C10.9708 5.4375 8.98948 10.875 9.29825 13.125H11.6141C11.4854 13.6875 11.2281 15.0375 11.2281 15.9375C10.6491 15.9375 9.22108 15.7875 8.14038 15.1875C7.05968 14.5875 6.66085 15.0625 6.59652 15.375C6.46787 15.6875 6.40354 16.3875 7.17547 16.6875C7.35742 16.7582 7.54618 16.8396 7.74567 16.9255C8.60413 17.2955 9.66119 17.7511 11.2281 17.8125C11.2924 18.625 11.5368 20.4 12 21H2.73684C2.15789 21 1 20.6625 1 19.3125V4.6875C1 4.125 1.38596 3 2.92982 3H12ZM6.5 7.66667C6.5 7.13333 6.95833 7 7.1875 7C7.7375 7 7.875 7.44444 7.875 7.66667V9C7.875 9.22222 7.7375 9.66667 7.1875 9.66667C6.6375 9.66667 6.5 9.22222 6.5 9V7.66667Z" fill="#F2F0FF"/>
</svg>
