<svg width="24" height="24" viewBox="0 0 24 24" fill="none" xmlns="http://www.w3.org/2000/svg">
<path d="M21.4 12.95L18.62 14.34C18.43 14.44 18.2 14.4 18.04 14.25L16.17 12.38C15.97 12.18 15.97 11.87 16.17 11.67L18.07 9.76999C18.22 9.61999 18.46 9.57999 18.65 9.67999L21.4 11.06C22.19 11.44 22.19 12.56 21.4 12.95Z" fill="#F2F0FF"/>
<path d="M16.3 8.48999C16.61 8.63999 16.67 9.05001 16.43 9.29001L14.76 10.96L14.05 11.67C13.85 11.87 13.54 11.87 13.34 11.67L6.2 4.53C5.8 4.13 6.27 3.48001 6.78 3.73001L16.3 8.48999Z" fill="#F2F0FF"/>
<path d="M2 20.15V3.48002C2 3.04002 2.53 2.81001 2.85 3.12001L11.62 11.63C11.83 11.83 11.82 12.16 11.61 12.36L2.84 20.52C2.52 20.82 2 20.59 2 20.15Z" fill="#F2F0FF"/>
<path d="M16.27 15.52L6.88 20.22C6.37 20.47 5.9 19.82 6.3 19.42L13.35 12.37C13.55 12.17 13.86 12.17 14.06 12.37L16.41 14.72C16.64 14.96 16.57 15.37 16.27 15.52Z" fill="#F2F0FF"/>
</svg>
