<svg width="24" height="24" viewBox="0 0 24 24" fill="none" xmlns="http://www.w3.org/2000/svg">
<g clip-path="url(#clip0_5_78)">
<path d="M8.45455 3H5.54545C3.88727 3 3 3.87273 3 5.54545V8.45455C3 10.1273 3.88727 11 5.54545 11H8.45455C10.1127 11 11 10.1273 11 8.45455V5.54545C11 3.87273 10.1127 3 8.45455 3Z" fill="#F2F0FF"/>
<path d="M18.4545 3H15.5455C13.8873 3 13 3.87273 13 5.54545V8.45455C13 10.1273 13.8873 11 15.5455 11H18.4545C20.1127 11 21 10.1273 21 8.45455V5.54545C21 3.87273 20.1127 3 18.4545 3Z" fill="#F2F0FF"/>
<path d="M8.45455 13H5.54545C3.88727 13 3 13.8727 3 15.5455V18.4545C3 20.1273 3.88727 21 5.54545 21H8.45455C10.1127 21 11 20.1273 11 18.4545V15.5455C11 13.8727 10.1127 13 8.45455 13Z" fill="#F2F0FF"/>
<path d="M15.0455 13H13.9545C13.3327 13 13 13.3273 13 13.9545V15.0455C13 15.6727 13.3327 16 13.9545 16H15.0455C15.6673 16 16 15.6727 16 15.0455V13.9545C16 13.3273 15.6673 13 15.0455 13Z" fill="#F2F0FF"/>
<path d="M20.0455 13H18.9545C18.3327 13 18 13.3273 18 13.9545V15.0455C18 15.6727 18.3327 16 18.9545 16H20.0455C20.6673 16 21 15.6727 21 15.0455V13.9545C21 13.3273 20.6673 13 20.0455 13Z" fill="#F2F0FF"/>
<path d="M15.0455 18H13.9545C13.3327 18 13 18.3273 13 18.9545V20.0455C13 20.6727 13.3327 21 13.9545 21H15.0455C15.6673 21 16 20.6727 16 20.0455V18.9545C16 18.3273 15.6673 18 15.0455 18Z" fill="#F2F0FF"/>
<path d="M17.3636 16H16.6364C16.2218 16 16 16.2182 16 16.6364V17.3636C16 17.7818 16.2218 18 16.6364 18H17.3636C17.7782 18 18 17.7818 18 17.3636V16.6364C18 16.2182 17.7782 16 17.3636 16Z" fill="#F2F0FF"/>
</g>
<defs>
<clipPath id="clip0_5_78">
<rect width="24" height="24" fill="white"/>
</clipPath>
</defs>
</svg>
