<svg width="24" height="24" viewBox="0 0 24 24" fill="none" xmlns="http://www.w3.org/2000/svg">
<path d="M15.13 4.94251L7.13 4.94251C6.72 4.94251 6.38 5.28251 6.38 5.69251C6.38 6.1025 6.72 6.44251 7.13 6.44251L15.13 6.44251C17.47 6.44251 19.38 8.35251 19.38 10.6925C19.38 13.0325 17.47 14.9425 15.13 14.9425L4.13 14.9425C3.72 14.9425 3.38 15.2825 3.38 15.6925C3.38 16.1025 3.72 16.4425 4.13 16.4425L15.13 16.4425C18.3 16.4425 20.88 13.8625 20.88 10.6925C20.88 7.52251 18.3 4.94251 15.13 4.94251Z" fill="#F2F0FF"/>
<path d="M6.43 12.4425C6.24 12.4425 6.05 12.5125 5.9 12.6625L3.34 15.2225C3.05 15.5125 3.05 15.9925 3.34 16.2825L5.9 18.8425C6.19 19.1325 6.67 19.1325 6.96 18.8425C7.25 18.5525 7.25 18.0725 6.96 17.7825L4.93 15.7525L6.96 13.7225C7.25 13.4325 7.25 12.9525 6.96 12.6625C6.82 12.5125 6.62 12.4425 6.43 12.4425Z" fill="#F2F0FF"/>
</svg>
