<svg width="24" height="24" viewBox="0 0 24 24" fill="none" xmlns="http://www.w3.org/2000/svg">
<path fill-rule="evenodd" clip-rule="evenodd" d="M8.03886 6.15536L3.74919 2.9189C3.58172 2.79346 3.32408 2.4673 3.63325 2.16623C3.94242 1.86517 4.35464 2.04079 4.5221 2.16623L9.15959 5.44033L10.7054 4.42423C11.1176 4.11062 12.2281 3.67156 13.372 4.42423L14.8019 5.44033L19.4007 2.20387C19.5553 2.07842 19.9495 1.9028 20.2896 2.20387C20.6296 2.50493 20.4313 2.806 20.2896 2.9189L15.8839 6.15536L17.623 7.32199L21.99 4.08553C22.1574 3.97263 22.5619 3.82962 22.8402 4.1608C23.1184 4.49197 22.9046 4.75038 22.7629 4.8382L18.6278 7.96176L19.9804 8.97785C20.2509 9.12839 20.7842 9.7531 20.7533 11.0477V14.0583C20.7662 14.2841 20.6528 14.8562 20.0963 15.3379L18.9756 16.3163L22.7242 19.0259C22.8917 19.1639 23.1571 19.5227 22.8788 19.8539C22.6006 20.185 22.1446 19.9919 21.9513 19.8539L17.7776 16.8808L16.1545 18.0851L20.2123 21.0205C20.3668 21.171 20.5833 21.5398 20.2123 21.8108C19.8413 22.0818 19.4651 21.8484 19.3234 21.6979L15.0337 18.7249L13.1015 20.0044C12.6892 20.2177 11.6561 20.5162 10.8214 20.0044L8.96636 18.7625L4.48346 21.8861C4.29023 21.999 3.83421 22.1269 3.55596 21.7355C3.27771 21.3441 3.5946 21.0707 3.78783 20.9829L7.88428 18.0475L6.18387 16.8056L1.93284 19.8539C1.75249 19.9542 1.33769 20.0797 1.12128 19.7786C0.904861 19.4775 1.1084 19.2016 1.23721 19.1012L5.10179 16.2411L4.29023 15.7142C3.98106 15.5386 3.36273 14.9766 3.36273 14.1336V10.8972C3.32408 10.4706 3.45548 9.46709 4.29023 8.86495L5.4496 7.96176L1.15992 4.76293C1.0311 4.67512 0.858486 4.4167 1.19857 4.08553C1.53865 3.75436 1.90707 3.94754 2.04877 4.08553L6.3771 7.28436L8.03886 6.15536Z" fill="#F2F0FF"/>
</svg>
