<svg xmlns="http://www.w3.org/2000/svg" width="64" height="64" id="uranus">
  <g color="#000" transform="translate(362 -1004.362)">
    <circle cx="32" cy="1020.362" r="31.5" fill="#34485c" stroke="#34485c" stroke-dashoffset="1.5" stroke-linecap="round" stroke-linejoin="round" overflow="visible" transform="translate(-362 16)"></circle>
    <path fill="#fff" d="m-321.88 1014.245-.62-2.38-2.38-.62 2.38-.62.62-2.38.62 2.38 2.38.62-2.38.62zM-346.998 1023.356l-.413-1.587-1.587-.413 1.587-.414.413-1.586.414 1.586 1.586.414-1.586.413zM-350.13 1051.242l-.568-2.181-2.182-.569 2.182-.568.568-2.182.569 2.182 2.181.568-2.181.569zM-312.38 1025.862l-.516-1.983-1.984-.517 1.984-.517.516-1.983.517 1.983 1.983.517-1.983.517zM-345.5 1017.364l-.31-1.19-1.19-.31 1.19-.31.31-1.19.31 1.19 1.19.31-1.19.31zM-308.878 1055.239l-.387-1.488-1.488-.387 1.488-.388.387-1.487.388 1.487 1.487.388-1.487.387z" overflow="visible"></path>
    <circle cx="-330" cy="1036.362" r="16" fill="#60c5b8" overflow="visible"></circle>
    <circle cx="-330" cy="1036.362" r="16" fill="#c8d2d2" overflow="visible"></circle>
    <path fill="#e9eded" d="M-330 1020.362c-.554 0-1 .446-1 1s.446 1 1 1h2c.554 0 1 .446 1 1s-.446 1-1 1h-4.5c-.554 0-1 .446-1 1s.446 1 1 1h3.232c.554 0 1 .446 1 1s-.446 1-1 1h-5.714c-.554 0-1 .446-1 1s.446 1 1 1H-324.99c.554 0 1 .446 1 1s-.446 1-1 1h-8.059c-.554 0-1 .446-1 1s.446 1 1 1h4.194c.554 0 1 .446 1 1s-.446 1-1 1h-2.19c-.554 0-1 .446-1 1s.446 1 1 1h7.908c.554 0 1 .446 1 1s-.446 1-1 1h-12.805c-.554 0-1 .446-1 1s.446 1 1 1h11.194c.554 0 1 .446 1 1s-.446 1-1 1H-331c-.554 0-1 .446-1 1s.446 1 1 1h9c.554 0 1 .446 1 1s-.446 1-1 1h-12c-.554 0-1 .446-1 1s.446 1 1 1H-329.137c.554 0 1 .446 1 1 0 .486-.35.87-.808.961 8.407-.555 14.943-7.535 14.945-15.96 0-8.837-7.163-16-16-16z" overflow="visible"></path>
  </g>
</svg>
