<svg width="24" height="24" viewBox="0 0 24 24" fill="none" xmlns="http://www.w3.org/2000/svg">
<path d="M4.72747 5.21959H1L2.96614 18H7.38994L13.3703 5.21959H9.6428L5.75149 14.1791L4.72747 5.21959Z" fill="#F2F0FF"/>
<path d="M12.5101 18L12.8787 15.4966C14.6674 14.0912 18.3921 11.1486 18.9819 10.6216C19.5718 10.0946 19.7192 9.31869 19.7192 8.99662C19.7739 8.58671 19.5882 7.75811 18.4085 7.72297C17.2288 7.68784 16.7427 8.82095 16.6472 9.39189H13.5751C14.1895 5.39527 17.7531 5 18.8591 5C19.7438 5 20.675 5.29279 21.03 5.43919C21.6444 5.61486 22.8978 6.43176 22.9961 8.29392C23.0944 10.1561 21.2894 12.0563 20.3746 12.7736L17.4254 15.1892H22.095L21.6444 18H12.5101Z" fill="#F2F0FF"/>
</svg>
