<svg width="24" height="24" viewBox="0 0 24 24" fill="none" xmlns="http://www.w3.org/2000/svg">
<g clip-path="url(#clip0_709_25646)">
<path d="M14.2295 2H8.76953V6.36H14.2295V2Z" fill="#2F2F2F"/>
<path d="M15.7305 2V6.36H21.3705C20.8605 3.61 18.8305 2.01 15.7305 2Z" fill="#2F2F2F"/>
<path d="M1.5 7.86011V16.1901C1.5 19.8301 3.67 22.0001 7.31 22.0001H15.69C19.33 22.0001 21.5 19.8301 21.5 16.1901V7.86011H1.5ZM13.94 16.1801L11.86 17.3801C11.42 17.6301 10.99 17.7601 10.59 17.7601C10.29 17.7601 10.02 17.6901 9.77 17.5501C9.19 17.2201 8.87 16.5401 8.87 15.6601V13.2601C8.87 12.3801 9.19 11.7001 9.77 11.3701C10.35 11.0301 11.09 11.0901 11.86 11.5401L13.94 12.7401C14.71 13.1801 15.13 13.8001 15.13 14.4701C15.13 15.1401 14.7 15.7301 13.94 16.1801Z" fill="#2F2F2F"/>
<path d="M7.26988 2C4.16988 2.01 2.13988 3.61 1.62988 6.36H7.26988V2Z" fill="#2F2F2F"/>
</g>
<defs>
<clipPath id="clip0_709_25646">
<rect width="24" height="24" fill="white"/>
</clipPath>
</defs>
</svg>
