<svg width="24" height="24" viewBox="0 0 24 24" fill="none" xmlns="http://www.w3.org/2000/svg">
<path fill-rule="evenodd" clip-rule="evenodd" d="M21.68 1.02017L12.88 2.73818C12.363 2.83482 12 3.27507 12 3.79047V9.35249C12 9.94305 12.495 10.4262 13.1 10.4262H21.9C22.505 10.4262 23 9.94305 23 9.35249V2.07246C23 1.39599 22.362 0.891319 21.68 1.02017Z" fill="#F2F0FF"/>
<path fill-rule="evenodd" clip-rule="evenodd" d="M21.68 21.9798L12.88 20.2618C12.363 20.1652 12 19.7249 12 19.2095V13.6475C12 13.0569 12.495 12.5738 13.1 12.5738H21.9C22.505 12.5738 23 13.0569 23 13.6475V20.9275C23 21.604 22.362 22.1087 21.68 21.9798Z" fill="#F2F0FF"/>
<path fill-rule="evenodd" clip-rule="evenodd" d="M8.46898 3.51128L1.86898 4.87494C1.36298 4.98231 1 5.42256 1 5.92723V9.35249C1 9.94306 1.495 10.4262 2.1 10.4262H8.7C9.305 10.4262 9.8 9.94306 9.8 9.35249V4.55282C9.8 3.87636 9.15098 3.36096 8.46898 3.51128Z" fill="#F2F0FF"/>
<path fill-rule="evenodd" clip-rule="evenodd" d="M8.46898 19.4887L1.86898 18.1251C1.36298 18.0177 1 17.5774 1 17.0728V13.6475C1 13.0569 1.495 12.5738 2.1 12.5738H8.7C9.305 12.5738 9.8 13.0569 9.8 13.6475V18.4472C9.8 19.1236 9.15098 19.639 8.46898 19.4887Z" fill="#F2F0FF"/>
</svg>
